<svg xmlns="http://www.w3.org/2000/svg" viewBox="0 0 32 32" width="32" height="32">
      <defs>
            <linearGradient id="iconGrad" x1="0%" y1="0%" x2="100%" y2="100%">
                  <stop offset="0%" stop-color="#F97316" />
                  <stop offset="100%" stop-color="#EA580C" />
            </linearGradient>
            <linearGradient id="mGrad" x1="0%" y1="0%" x2="100%" y2="100%">
                  <stop offset="0%" stop-color="#F97316" />
                  <stop offset="100%" stop-color="#C2410C" />
            </linearGradient>
      </defs>

      <rect x="1" y="1" width="30" height="30" rx="7" fill="#FFFFFF" stroke="#E4E4E7" />

      <polygon
            points="16,4.5 24,9 24,18 16,22.5 8,18 8,9"
            fill="url(#iconGrad)"
            opacity="0.14"
            stroke="#F97316"
            stroke-width="1"
      />

      <line x1="11" y1="16.8" x2="11" y2="10.8" stroke="url(#mGrad)" stroke-width="2.2" stroke-linecap="round" />
      <line x1="11" y1="10.8" x2="16" y2="14.8" stroke="url(#mGrad)" stroke-width="2.2" stroke-linecap="round" />
      <line x1="16" y1="14.8" x2="21" y2="10.8" stroke="url(#mGrad)" stroke-width="2.2" stroke-linecap="round" />
      <line x1="21" y1="10.8" x2="21" y2="16.8" stroke="url(#mGrad)" stroke-width="2.2" stroke-linecap="round" />

      <circle cx="11" cy="16.8" r="1.8" fill="#F97316" />
      <circle cx="16" cy="14.8" r="1.7" fill="#F97316" opacity="0.75" />
      <circle cx="21" cy="16.8" r="1.8" fill="#F97316" />

      <line x1="12.3" y1="19.4" x2="19.7" y2="19.4" stroke="#F97316" stroke-width="1" stroke-linecap="round" opacity="0.6" />
      <circle cx="12.3" cy="19.4" r="0.8" fill="#F97316" opacity="0.65" />
      <circle cx="19.7" cy="19.4" r="0.8" fill="#F97316" opacity="0.65" />
</svg>
